<svg width="300" height="400" viewBox="0 0 300 400" fill="none" xmlns="http://www.w3.org/2000/svg">
  <rect width="300" height="400" fill="#FDF2F8"/>
  <rect x="50" y="50" width="200" height="300" rx="12" fill="#FFFFFF" stroke="#F3E8FF" stroke-width="2"/>
  
  <!-- Lace pattern -->
  <circle cx="100" cy="100" r="3" fill="#EC4899" opacity="0.3"/>
  <circle cx="120" cy="110" r="3" fill="#EC4899" opacity="0.3"/>
  <circle cx="140" cy="100" r="3" fill="#EC4899" opacity="0.3"/>
  <circle cx="160" cy="110" r="3" fill="#EC4899" opacity="0.3"/>
  <circle cx="180" cy="100" r="3" fill="#EC4899" opacity="0.3"/>
  <circle cx="200" cy="110" r="3" fill="#EC4899" opacity="0.3"/>
  
  <!-- Product outline -->
  <path d="M80 150 Q150 130 220 150 Q210 200 200 250 Q150 270 100 250 Q90 200 80 150 Z" 
        fill="#000000" opacity="0.1" stroke="#EC4899" stroke-width="2"/>
  
  <!-- Decorative elements -->
  <rect x="120" y="180" width="60" height="4" rx="2" fill="#EC4899"/>
  <rect x="110" y="200" width="80" height="4" rx="2" fill="#EC4899"/>
  <rect x="130" y="220" width="40" height="4" rx="2" fill="#EC4899"/>
  
  <text x="150" y="320" text-anchor="middle" fill="#374151" font-family="Arial, sans-serif" font-size="16" font-weight="600">Crotchless Panties</text>
  <text x="150" y="340" text-anchor="middle" fill="#6B7280" font-family="Arial, sans-serif" font-size="12">Lace Design</text>
  <text x="150" y="360" text-anchor="middle" fill="#EC4899" font-family="Arial, sans-serif" font-size="14" font-weight="600">$29.99</text>
</svg>
