<svg width="300" height="400" viewBox="0 0 300 400" fill="none" xmlns="http://www.w3.org/2000/svg">
  <rect width="300" height="400" fill="#FDF2F8"/>
  <rect x="50" y="50" width="200" height="300" rx="12" fill="#FFFFFF" stroke="#FCE7F3" stroke-width="2"/>
  
  <!-- Lace pattern -->
  <defs>
    <pattern id="lace" x="0" y="0" width="15" height="15" patternUnits="userSpaceOnUse">
      <circle cx="7.5" cy="7.5" r="2" fill="#EC4899" opacity="0.2"/>
      <circle cx="7.5" cy="7.5" r="1" fill="#EC4899" opacity="0.4"/>
    </pattern>
  </defs>
  
  <!-- Bralette cups -->
  <circle cx="130" cy="140" r="25" fill="url(#lace)" stroke="#EC4899" stroke-width="2"/>
  <circle cx="170" cy="140" r="25" fill="url(#lace)" stroke="#EC4899" stroke-width="2"/>
  
  <!-- Center detail -->
  <rect x="148" y="130" width="4" height="20" rx="2" fill="#EC4899"/>
  
  <!-- Straps -->
  <path d="M115 120 Q130 110 145 120" stroke="#EC4899" stroke-width="2" fill="none"/>
  <path d="M155 120 Q170 110 185 120" stroke="#EC4899" stroke-width="2" fill="none"/>
  
  <!-- Band -->
  <rect x="105" y="160" width="90" height="8" rx="4" fill="#EC4899" opacity="0.3"/>
  
  <!-- Panty outline -->
  <path d="M120 200 Q150 190 180 200 Q175 230 170 250 Q150 260 130 250 Q125 230 120 200 Z" 
        fill="url(#lace)" stroke="#EC4899" stroke-width="2"/>
  
  <text x="150" y="320" text-anchor="middle" fill="#374151" font-family="Arial, sans-serif" font-size="16" font-weight="600">Lace Bralette Set</text>
  <text x="150" y="340" text-anchor="middle" fill="#6B7280" font-family="Arial, sans-serif" font-size="12">Delicate Lace</text>
  <text x="150" y="360" text-anchor="middle" fill="#059669" font-family="Arial, sans-serif" font-size="14" font-weight="600">$69.99</text>
</svg>
