<svg width="300" height="400" viewBox="0 0 300 400" fill="none" xmlns="http://www.w3.org/2000/svg">
  <rect width="300" height="400" fill="#FEF2F2"/>
  <rect x="50" y="50" width="200" height="300" rx="12" fill="#FFFFFF" stroke="#FECACA" stroke-width="2"/>
  
  <!-- Mesh pattern -->
  <defs>
    <pattern id="meshPattern" x="0" y="0" width="8" height="8" patternUnits="userSpaceOnUse">
      <rect width="8" height="8" fill="none" stroke="#EF4444" stroke-width="0.5" opacity="0.3"/>
    </pattern>
  </defs>
  
  <!-- Open crotch panties outline -->
  <path d="M100 150 Q150 140 200 150 Q195 180 190 210 L180 220 Q150 230 120 220 L110 210 Q105 180 100 150 Z" 
        fill="url(#meshPattern)" stroke="#EF4444" stroke-width="2"/>
  
  <!-- Open crotch detail -->
  <ellipse cx="150" cy="190" rx="15" ry="10" fill="none" stroke="#EF4444" stroke-width="2" stroke-dasharray="3,2"/>
  
  <!-- Mesh texture lines -->
  <line x1="110" y1="160" x2="190" y2="160" stroke="#EF4444" stroke-width="0.5" opacity="0.4"/>
  <line x1="115" y1="170" x2="185" y2="170" stroke="#EF4444" stroke-width="0.5" opacity="0.4"/>
  <line x1="120" y1="180" x2="180" y2="180" stroke="#EF4444" stroke-width="0.5" opacity="0.4"/>
  <line x1="125" y1="200" x2="175" y2="200" stroke="#EF4444" stroke-width="0.5" opacity="0.4"/>
  
  <!-- Side details -->
  <circle cx="105" cy="170" r="2" fill="#EF4444" opacity="0.6"/>
  <circle cx="195" cy="170" r="2" fill="#EF4444" opacity="0.6"/>
  
  <!-- Waistband -->
  <rect x="100" y="145" width="100" height="6" rx="3" fill="#EF4444" opacity="0.4"/>
  
  <text x="150" y="320" text-anchor="middle" fill="#374151" font-family="Arial, sans-serif" font-size="16" font-weight="600">Open Crotch Mesh</text>
  <text x="150" y="340" text-anchor="middle" fill="#6B7280" font-family="Arial, sans-serif" font-size="12">Sheer Mesh</text>
  <text x="150" y="360" text-anchor="middle" fill="#DC2626" font-family="Arial, sans-serif" font-size="14" font-weight="600">$35.99</text>
</svg>
