<svg width="300" height="400" viewBox="0 0 300 400" fill="none" xmlns="http://www.w3.org/2000/svg">
  <rect width="300" height="400" fill="#FFFBEB"/>
  <rect x="50" y="50" width="200" height="300" rx="12" fill="#FFFFFF" stroke="#FEF3C7" stroke-width="2"/>
  
  <!-- Satin gradient -->
  <defs>
    <linearGradient id="satin" x1="0%" y1="0%" x2="100%" y2="100%">
      <stop offset="0%" style="stop-color:#DC2626;stop-opacity:0.2" />
      <stop offset="50%" style="stop-color:#DC2626;stop-opacity:0.1" />
      <stop offset="100%" style="stop-color:#DC2626;stop-opacity:0.2" />
    </linearGradient>
  </defs>
  
  <!-- Chemise outline -->
  <path d="M115 85 Q150 75 185 85 L190 140 Q185 220 180 280 Q150 300 120 280 Q115 220 110 140 Z" 
        fill="url(#satin)" stroke="#DC2626" stroke-width="2"/>
  
  <!-- Lace details -->
  <path d="M115 85 Q150 80 185 85" stroke="#DC2626" stroke-width="2" fill="none"/>
  <circle cx="130" cy="95" r="2" fill="#DC2626" opacity="0.5"/>
  <circle cx="150" cy="90" r="2" fill="#DC2626" opacity="0.5"/>
  <circle cx="170" cy="95" r="2" fill="#DC2626" opacity="0.5"/>
  
  <!-- Side seams -->
  <line x1="115" y1="140" x2="115" y2="260" stroke="#DC2626" stroke-width="1" opacity="0.3"/>
  <line x1="185" y1="140" x2="185" y2="260" stroke="#DC2626" stroke-width="1" opacity="0.3"/>
  
  <text x="150" y="320" text-anchor="middle" fill="#374151" font-family="Arial, sans-serif" font-size="16" font-weight="600">Satin Chemise</text>
  <text x="150" y="340" text-anchor="middle" fill="#6B7280" font-family="Arial, sans-serif" font-size="12">Smooth Satin</text>
  <text x="150" y="360" text-anchor="middle" fill="#059669" font-family="Arial, sans-serif" font-size="14" font-weight="600">$39.99</text>
</svg>
