<svg width="300" height="400" viewBox="0 0 300 400" fill="none" xmlns="http://www.w3.org/2000/svg">
  <rect width="300" height="400" fill="#F8FAFC"/>
  <rect x="50" y="50" width="200" height="300" rx="12" fill="#FFFFFF" stroke="#E2E8F0" stroke-width="2"/>
  
  <!-- Silk texture -->
  <defs>
    <linearGradient id="silk" x1="0%" y1="0%" x2="100%" y2="100%">
      <stop offset="0%" style="stop-color:#1F2937;stop-opacity:0.1" />
      <stop offset="50%" style="stop-color:#1F2937;stop-opacity:0.05" />
      <stop offset="100%" style="stop-color:#1F2937;stop-opacity:0.1" />
    </linearGradient>
  </defs>
  
  <!-- Bodysuit outline -->
  <path d="M120 80 Q150 70 180 80 L185 120 Q180 180 175 240 Q150 280 125 240 Q120 180 115 120 Z" 
        fill="url(#silk)" stroke="#1F2937" stroke-width="2"/>
  
  <!-- Straps -->
  <rect x="135" y="70" width="8" height="20" rx="4" fill="#1F2937" opacity="0.3"/>
  <rect x="157" y="70" width="8" height="20" rx="4" fill="#1F2937" opacity="0.3"/>
  
  <!-- Decorative lines -->
  <line x1="130" y1="120" x2="170" y2="120" stroke="#1F2937" stroke-width="1" opacity="0.3"/>
  <line x1="125" y1="160" x2="175" y2="160" stroke="#1F2937" stroke-width="1" opacity="0.3"/>
  <line x1="130" y1="200" x2="170" y2="200" stroke="#1F2937" stroke-width="1" opacity="0.3"/>
  
  <text x="150" y="320" text-anchor="middle" fill="#374151" font-family="Arial, sans-serif" font-size="16" font-weight="600">Silk Bodysuit</text>
  <text x="150" y="340" text-anchor="middle" fill="#6B7280" font-family="Arial, sans-serif" font-size="12">Luxury Silk</text>
  <text x="150" y="360" text-anchor="middle" fill="#059669" font-family="Arial, sans-serif" font-size="14" font-weight="600">$89.99</text>
</svg>
